<mxfile host="app.diagrams.net" modified="2022-05-16T15:52:40.287Z" agent="5.0 (Macintosh; Intel Mac OS X 10_15_7) AppleWebKit/605.1.15 (KHTML, like Gecko) Version/15.4 Safari/605.1.15" etag="au_f20PWnej7YexvTtI7" version="18.0.6" type="github">
  <diagram id="qpknGz8Ece-PGyn0UtV3" name="Page-1">
    <mxGraphModel dx="946" dy="620" grid="1" gridSize="10" guides="1" tooltips="1" connect="1" arrows="1" fold="1" page="1" pageScale="1" pageWidth="827" pageHeight="1169" math="0" shadow="0">
      <root>
        <mxCell id="0" />
        <mxCell id="1" parent="0" />
        <mxCell id="FCTUaYiTitFUXqUZ0cZQ-1" style="edgeStyle=orthogonalEdgeStyle;rounded=0;orthogonalLoop=1;jettySize=auto;html=1;entryX=0;entryY=0.5;entryDx=0;entryDy=0;" edge="1" parent="1" source="JIV3UKDBtaXYtb4STS5v-1" target="JIV3UKDBtaXYtb4STS5v-3">
          <mxGeometry relative="1" as="geometry" />
        </mxCell>
        <mxCell id="FCTUaYiTitFUXqUZ0cZQ-12" style="edgeStyle=orthogonalEdgeStyle;rounded=0;orthogonalLoop=1;jettySize=auto;html=1;exitX=0;exitY=1;exitDx=0;exitDy=0;exitPerimeter=0;entryX=0.217;entryY=0.988;entryDx=0;entryDy=0;entryPerimeter=0;" edge="1" parent="1" source="JIV3UKDBtaXYtb4STS5v-1" target="FCTUaYiTitFUXqUZ0cZQ-8">
          <mxGeometry relative="1" as="geometry" />
        </mxCell>
        <mxCell id="JIV3UKDBtaXYtb4STS5v-1" value="Client" style="shape=umlActor;verticalLabelPosition=bottom;verticalAlign=top;html=1;outlineConnect=0;" parent="1" vertex="1">
          <mxGeometry x="80" y="80" width="30" height="60" as="geometry" />
        </mxCell>
        <mxCell id="FCTUaYiTitFUXqUZ0cZQ-5" style="edgeStyle=orthogonalEdgeStyle;rounded=0;orthogonalLoop=1;jettySize=auto;html=1;entryX=0;entryY=0;entryDx=0;entryDy=27.5;entryPerimeter=0;" edge="1" parent="1" source="JIV3UKDBtaXYtb4STS5v-3" target="FCTUaYiTitFUXqUZ0cZQ-4">
          <mxGeometry relative="1" as="geometry">
            <Array as="points">
              <mxPoint x="680" y="100" />
            </Array>
          </mxGeometry>
        </mxCell>
        <mxCell id="FCTUaYiTitFUXqUZ0cZQ-9" style="edgeStyle=orthogonalEdgeStyle;rounded=0;orthogonalLoop=1;jettySize=auto;html=1;entryX=0.5;entryY=0;entryDx=0;entryDy=0;" edge="1" parent="1" source="JIV3UKDBtaXYtb4STS5v-3" target="FCTUaYiTitFUXqUZ0cZQ-8">
          <mxGeometry relative="1" as="geometry" />
        </mxCell>
        <mxCell id="JIV3UKDBtaXYtb4STS5v-3" value="" style="rounded=0;whiteSpace=wrap;html=1;" parent="1" vertex="1">
          <mxGeometry x="294" y="80" width="120" height="60" as="geometry" />
        </mxCell>
        <mxCell id="FCTUaYiTitFUXqUZ0cZQ-2" value="Query" style="text;html=1;strokeColor=none;fillColor=none;align=center;verticalAlign=middle;whiteSpace=wrap;rounded=0;" vertex="1" parent="1">
          <mxGeometry x="160" y="80" width="60" height="30" as="geometry" />
        </mxCell>
        <mxCell id="FCTUaYiTitFUXqUZ0cZQ-3" value="Server" style="text;html=1;strokeColor=none;fillColor=none;align=center;verticalAlign=middle;whiteSpace=wrap;rounded=0;" vertex="1" parent="1">
          <mxGeometry x="324" y="95" width="60" height="30" as="geometry" />
        </mxCell>
        <mxCell id="FCTUaYiTitFUXqUZ0cZQ-6" style="edgeStyle=orthogonalEdgeStyle;rounded=0;orthogonalLoop=1;jettySize=auto;html=1;entryX=1;entryY=0.75;entryDx=0;entryDy=0;" edge="1" parent="1" source="FCTUaYiTitFUXqUZ0cZQ-4" target="JIV3UKDBtaXYtb4STS5v-3">
          <mxGeometry relative="1" as="geometry">
            <Array as="points">
              <mxPoint x="570" y="125" />
              <mxPoint x="570" y="125" />
            </Array>
          </mxGeometry>
        </mxCell>
        <mxCell id="FCTUaYiTitFUXqUZ0cZQ-4" value="" style="shape=cylinder3;whiteSpace=wrap;html=1;boundedLbl=1;backgroundOutline=1;size=15;" vertex="1" parent="1">
          <mxGeometry x="680" y="70" width="60" height="80" as="geometry" />
        </mxCell>
        <mxCell id="FCTUaYiTitFUXqUZ0cZQ-7" value="PostgreSQL" style="text;html=1;strokeColor=none;fillColor=none;align=center;verticalAlign=middle;whiteSpace=wrap;rounded=0;" vertex="1" parent="1">
          <mxGeometry x="750" y="80" width="60" height="30" as="geometry" />
        </mxCell>
        <mxCell id="FCTUaYiTitFUXqUZ0cZQ-10" style="edgeStyle=orthogonalEdgeStyle;rounded=0;orthogonalLoop=1;jettySize=auto;html=1;" edge="1" parent="1" source="FCTUaYiTitFUXqUZ0cZQ-8">
          <mxGeometry relative="1" as="geometry">
            <mxPoint x="100" y="170" as="targetPoint" />
          </mxGeometry>
        </mxCell>
        <mxCell id="FCTUaYiTitFUXqUZ0cZQ-13" style="edgeStyle=orthogonalEdgeStyle;rounded=0;orthogonalLoop=1;jettySize=auto;html=1;exitX=0.625;exitY=0;exitDx=0;exitDy=0;entryX=0.625;entryY=1;entryDx=0;entryDy=0;entryPerimeter=0;" edge="1" parent="1" source="FCTUaYiTitFUXqUZ0cZQ-8" target="JIV3UKDBtaXYtb4STS5v-3">
          <mxGeometry relative="1" as="geometry" />
        </mxCell>
        <mxCell id="FCTUaYiTitFUXqUZ0cZQ-8" value="Telegram Bot" style="shape=hexagon;perimeter=hexagonPerimeter2;whiteSpace=wrap;html=1;fixedSize=1;" vertex="1" parent="1">
          <mxGeometry x="294" y="200" width="120" height="80" as="geometry" />
        </mxCell>
      </root>
    </mxGraphModel>
  </diagram>
</mxfile>
